<?xml version="1.0" encoding="UTF-8"?>
<svg id="Layer_1" data-name="Layer 1" xmlns="http://www.w3.org/2000/svg" viewBox="0 0 129.98 99.95">
  <defs>
    <style>
      .cls-1 {
        fill: none;
      }

      .cls-1, .cls-2, .cls-3, .cls-4 {
        stroke: #231f20;
        stroke-miterlimit: 10;
      }

      .cls-2 {
        fill: #824f9f;
      }

      .cls-3 {
        fill: #4968b1;
      }

      .cls-4 {
        fill: #425e64;
      }
    </style>
  </defs>
  <polygon class="cls-3" points="128.15 88.91 18.83 98.23 .76 59.56 84.64 54.32 128.15 88.91"/>
  <line class="cls-1" x1="128.21" y1="89.29" x2="128.09" y2="20.99"/>
  <line class="cls-1" x1=".76" y1="59.56" x2=".76" y2="1.07"/>
  <line class="cls-1" x1="22.32" y1="25.19" x2=".76" y2="1.07"/>
  <line class="cls-1" x1="84.64" y1="54.32" x2="85.92" y2="1.07"/>
  <line class="cls-1" x1=".76" y1="1.07" x2="85.92" y2="1.07"/>
  <line class="cls-1" x1="128.09" y1="20.99" x2="85.92" y2="1.07"/>
  <path class="cls-2" d="M80.77,92.95l-61.31,5.22c-.28,.02-.48-.27-.36-.52l19.28-40.62s.03-.06,.05-.08L85.56,1.5c.17-.2,.49-.16,.61,.08l19.62,40.81,22.13,46.05c.11,.23-.04,.5-.3,.52l-46.85,3.99Z"/>
  <path class="cls-2" d="M9.55,78.37L.76,60.83H.76l37.88-26.36L85.34,1.49c.12-.08,.26,.06,.18,.18L18.83,98.23l-9.27-19.85Z"/>
  <line class="cls-1" x1="18.83" y1="98.23" x2="22.32" y2="25.19"/>
  <polygon class="cls-4" points="65.32 9.25 85.92 1.07 45.53 59.56 18.83 98.23 20.79 57.11 22.32 25.19 65.32 9.25"/>
  <line class="cls-1" x1="21.68" y1="25.19" x2="129.96" y2="21.34"/>
</svg>