<?xml version="1.0" encoding="UTF-8"?>
<svg id="Layer_1" data-name="Layer 1" xmlns="http://www.w3.org/2000/svg" viewBox="0 0 129.98 98.84">
  <defs>
    <style>
      .cls-1 {
        fill: none;
      }

      .cls-1, .cls-2, .cls-3 {
        stroke: #231f20;
        stroke-miterlimit: 10;
      }

      .cls-2 {
        fill: #824f9f;
      }

      .cls-3 {
        fill: #4968b1;
      }
    </style>
  </defs>
  <polygon class="cls-3" points="128.15 88.34 18.83 97.65 .76 58.99 84.64 53.74 128.15 88.34"/>
  <line class="cls-1" x1="128.21" y1="88.71" x2="128.09" y2="20.42"/>
  <line class="cls-1" x1=".76" y1="58.99" x2=".76" y2=".5"/>
  <line class="cls-1" x1="22.32" y1="24.61" x2=".76" y2=".5"/>
  <line class="cls-1" x1="84.64" y1="53.74" x2="85.92" y2=".5"/>
  <line class="cls-1" x1=".76" y1=".5" x2="85.92" y2=".5"/>
  <line class="cls-1" x1="128.09" y1="20.42" x2="85.92" y2=".5"/>
  <polygon class="cls-2" points="80.77 92.38 18.83 97.65 38.4 56.42 58.28 11.41 79.12 34.75 128.15 88.34 80.77 92.38"/>
  <polygon class="cls-2" points="9.55 77.8 .76 60.26 25.12 38.94 40.54 26.14 58.28 11.41 18.83 97.65 9.55 77.8"/>
  <line class="cls-1" x1="21.68" y1="24.61" x2="129.96" y2="20.77"/>
  <line class="cls-1" x1="18.83" y1="97.65" x2="22.32" y2="24.61"/>
</svg>